<?xml version="1.0" encoding="UTF-8"?>
<svg width="199px" height="40px" viewBox="0 0 199 40" version="1.1" xmlns="http://www.w3.org/2000/svg" xmlns:xlink="http://www.w3.org/1999/xlink">
    <title>logo</title>
    <g id="logo" stroke="none" stroke-width="1" fill="none" fill-rule="evenodd">
        <text id="Polkadog" font-family="JCfg, PilGi" font-size="40" font-weight="normal" fill="#222222">
            <tspan x="47" y="32">Polkadog</tspan>
        </text>
        <g id="image-2" fill="#E6007A" fill-rule="nonzero">
            <path d="M37,18.5 C37,28.7173444 28.7173444,37 18.5,37 C8.28265556,37 0,28.7173444 0,18.5 C0,8.28224444 8.28265556,0 18.5,0 C28.7173444,0 37,8.28224444 37,18.5 Z M29.2637111,14.8497444 C28.9039889,14.3851889 26.1955889,14.1862111 26.1955889,14.1862111 C27.1608778,11.3688667 29.3590889,8.34761111 29.2637111,7.5258 C29.2024556,7.00697778 29.0906333,6.68507778 28.7564,6.20202222 C28.1508333,5.33087778 23.6080556,10.6436667 23.6080556,10.6436667 C23.6080556,10.6436667 24.5980111,13.7376889 26.9380556,9.08226667 C26.9380556,9.08226667 25.6521,14.1747 25.5998889,14.2075889 C25.3244444,14.3839556 23.1254111,11.0116111 22.9346556,10.9483 C21.5804556,10.4993667 20.1259444,10.2555778 18.6122333,10.2555778 C18.1501444,10.2555778 17.8327667,10.2629778 17.6938111,10.2781889 C17.5708889,10.2913444 12.4488556,12.4451556 13.2057111,11.4658889 C13.5062333,11.0769778 15.4417444,10.3135444 14.8822222,10.3295778 C14.0365667,10.3538333 14.5442889,7.5258 13.8433444,5.97878889 C14.5442889,6.1383 17.1581333,9.287 16.5209111,9.77992222 C16.3618111,9.90366667 16.7963556,9.51352222 16.8473333,9.34044444 C17.0512444,8.66211111 14.1081,4.47371111 13.3298667,5.22974444 C12.2646778,6.26492222 13.4252444,11.2574556 12.6778444,11.6015556 C11.9004333,11.9588111 11.1723556,12.3839 10.4973111,12.8690111 C9.80664444,13.3652222 8.7801,13.7035667 8.21071111,14.3169444 C7.67133333,14.8982556 7.58376667,15.7492556 7.16607778,16.4222444 C5.95535556,18.3700889 5.27702222,20.6727222 5.27702222,23.1640556 C5.27702222,30.2927222 11.2471778,36.0717111 18.6126444,36.0717111 C25.9781111,36.0717111 31.9482667,30.2923111 31.9482667,23.1640556 C31.9470333,20.2599667 30.9340556,17.0064333 29.2637111,14.8497444 Z M10.8229111,24.8220667 C11.0038,24.7595778 11.6661,24.7608111 10.7476778,23.7938778 C11.9925222,25.1719222 14.5714222,22.1317556 11.1653667,21.1677 C10.2481778,20.9078778 7.7034,21.0020222 8.06641111,22.6493444 C8.13917778,22.8211889 8.92316667,23.5439222 8.94865556,23.4732111 C7.93238889,23.3227444 8.61072222,24.8142556 9.64836667,24.9470444 C9.84857778,24.9725333 10.6313333,24.8878444 10.8229111,24.8220667 Z M10.8808778,26.7399 C9.05554444,25.4613444 7.22116667,27.1501889 9.11104444,27.8499 C10.4516778,28.3461111 10.6120111,28.1068444 11.8276667,28.2996556 C12.6404333,28.4287444 17.3234,28.6799333 17.4039778,27.2237778 C17.2095222,27.2414556 17.3826,27.6089889 17.4039778,27.2237778 C15.9609778,27.3545111 14.4702889,27.6607889 13.8421111,27.7820667 C13.3755,27.8716889 12.8895667,27.3869889 12.3103111,27.1871889 L10.8808778,26.7399 Z M15.5276667,16.4218333 C15.9827667,15.3381444 17.6198111,10.6296889 16.6783667,12.2112333 C15.8096889,13.6702667 14.9821222,15.1416333 15.5276667,16.4218333 Z M17.2946222,19.8862667 C18.1082111,20.0807222 18.056,20.4906 19.2169778,20.5271889 C20.3750778,20.5633667 21.4406778,18.8589 21.4406778,18.8589 C21.4406778,18.8589 20.3750778,17.2395333 19.1076222,17.3118889 C17.8389333,17.3842444 16.4847333,19.6926333 17.2946222,19.8862667 Z M18.7458444,18.1238333 C18.9189222,17.8993667 19.3921111,18.7988778 19.4603556,18.1945444 C19.4858444,17.9889889 19.4126667,17.8923778 18.6274444,17.9043 C17.8422222,17.9162222 17.4919556,19.6157556 17.9881667,19.8986 C18.3692667,20.1164889 18.6484111,20.4897778 18.5263111,20.0079556 C18.4247667,19.6054778 18.4930111,18.4531333 18.7458444,18.1238333 Z M9.85762222,17.5651333 C9.93737778,18.1986556 10.7238333,18.6105889 11.0186,18.6101781 C11.6467778,18.6101781 12.2749556,17.2321333 12.2511111,16.8818667 C12.2272667,16.5316 11.9131778,15.9030111 10.9458333,15.9030111 C10.4335889,15.9030111 9.76882222,16.8498 9.85762222,17.5651333 Z M10.7032778,16.2039444 C10.8841667,15.9449444 9.98753333,16.4863778 10.0487889,17.2843444 C10.1088111,18.0819 10.8817,18.5431667 10.7032778,18.2993778 C9.93737778,17.2563889 10.5269111,16.4983 10.5269111,16.4983 C10.7057444,16.6323222 11.0798556,16.3424889 10.6576444,16.2721889 C10.6305111,16.2680778 10.6872444,16.2269667 10.7032778,16.2039444 Z M11.8358889,16.5480444 C11.7392778,16.5480444 11.6607556,16.6319111 11.6607556,16.7355111 C11.6607556,16.8387 11.7392778,16.9229778 11.8358889,16.9229778 C11.9325,16.9229778 12.0110222,16.8391111 12.0110222,16.7355111 C12.0110222,16.6319111 11.9320889,16.5480444 11.8358889,16.5480444 Z" id="形状"></path>
        </g>
    </g>
</svg>